<svg id="图层_1" data-name="图层 1" xmlns="http://www.w3.org/2000/svg" viewBox="0 0 88 88"><defs><style>.cls-1{fill:#97a6b7;}</style></defs><path class="cls-1" d="M54.06,63.62H33.94a.5.5,0,0,1-.47-.35,77.62,77.62,0,0,1-3.94-23.93c0-19.57,8.09-37,14.47-37,3,0,6.59,4.21,9.48,11a67.79,67.79,0,0,1,5,26,77.62,77.62,0,0,1-3.94,23.93A.5.5,0,0,1,54.06,63.62Zm-19.75-1H53.69a76.65,76.65,0,0,0,3.78-23.28c0-19.52-8.27-36-13.47-36s-13.47,16.12-13.47,36A76.71,76.71,0,0,0,34.31,62.62Z"/><path class="cls-1" d="M58,41.45H30a.5.5,0,0,1-.5-.5.51.51,0,0,1,.5-.5H58a.5.5,0,0,1,.5.5A.5.5,0,0,1,58,41.45Z"/><path class="cls-1" d="M53.47,68.63H34.53a3,3,0,0,1,0-6H53.47a3,3,0,0,1,0,6Zm-18.94-5a2,2,0,0,0,0,4H53.47a2,2,0,0,0,0-4Z"/><path class="cls-1" d="M51.45,81H36.55a.5.5,0,0,1-.5-.49l-.34-12.38a.5.5,0,0,1,.14-.37.51.51,0,0,1,.36-.15H51.79a.51.51,0,0,1,.36.15.5.5,0,0,1,.14.37L52,80.53A.49.49,0,0,1,51.45,81ZM37,80H51l.31-11.39H36.72Z"/><path class="cls-1" d="M40.1,60.35a.5.5,0,0,1-.5-.5v-11a.5.5,0,0,1,.5-.5.5.5,0,0,1,.5.5v11A.5.5,0,0,1,40.1,60.35Z"/><path class="cls-1" d="M44,60.35a.5.5,0,0,1-.5-.5v-11a.5.5,0,1,1,1,0v11A.5.5,0,0,1,44,60.35Z"/><path class="cls-1" d="M47.9,60.35a.5.5,0,0,1-.5-.5v-11a.5.5,0,0,1,.5-.5.5.5,0,0,1,.5.5v11A.5.5,0,0,1,47.9,60.35Z"/><path class="cls-1" d="M53.47,72.8H34.77a.5.5,0,0,1-.5-.5.5.5,0,0,1,.5-.5h18.7a.5.5,0,0,1,.5.5A.51.51,0,0,1,53.47,72.8Z"/><path class="cls-1" d="M53.47,77H34.77a.5.5,0,0,1-.5-.5.5.5,0,0,1,.5-.5h18.7a.5.5,0,0,1,.5.5A.51.51,0,0,1,53.47,77Z"/><path class="cls-1" d="M47.74,85.64H40a.5.5,0,0,1-.47-.32l-1.7-4.63a.54.54,0,0,1,.06-.46.52.52,0,0,1,.41-.21H49.78a.52.52,0,0,1,.42.23.49.49,0,0,1,0,.47l-2,4.63A.5.5,0,0,1,47.74,85.64Zm-7.43-1h7.1L49,81H39Z"/></svg>