<svg id="图层_1" data-name="图层 1" xmlns="http://www.w3.org/2000/svg" viewBox="0 0 88 88"><defs><style>.cls-1{fill:#97a6b7;}</style></defs><path class="cls-1" d="M44,73.66c-19.16,0-34.75-8.79-34.75-19.59S24.83,34.47,44,34.47s34.75,8.79,34.75,19.6S63.16,73.66,44,73.66Zm0-38.19c-18.61,0-33.75,8.34-33.75,18.6S25.38,72.66,44,72.66s33.75-8.34,33.75-18.59S62.6,35.47,44,35.47Z"/><path class="cls-1" d="M44,67.19c-13.88,0-25.17-5.89-25.17-13.12S30.11,40.94,44,40.94s25.17,5.89,25.17,13.13S57.87,67.19,44,67.19Zm0-25.25c-13.33,0-24.17,5.44-24.17,12.13S30.66,66.19,44,66.19s24.17-5.44,24.17-12.12S57.32,41.94,44,41.94Z"/><path class="cls-1" d="M44,65C31,65,20.47,59.48,20.47,52.7c0-2.67,1.59-5.2,4.59-7.32a.5.5,0,0,1,.7.12.51.51,0,0,1-.12.7c-2.73,1.92-4.17,4.17-4.17,6.5C21.47,58.93,31.57,64,44,64S66.52,58.93,66.52,52.7c0-2.31-1.42-4.55-4.11-6.46a.5.5,0,0,1,.58-.82c3,2.11,4.53,4.63,4.53,7.28C67.52,59.48,57,65,44,65Z"/><path class="cls-1" d="M64.29,39.18a.51.51,0,0,1-.5-.42l-1.56-10C58.09,25.72,51.3,23.9,44,23.9s-14.07,1.81-18.21,4.85l-1.58,10a.51.51,0,0,1-.57.41.5.5,0,0,1-.42-.57l1.61-10.21a.5.5,0,0,1,.2-.32c4.29-3.23,11.38-5.17,19-5.17s14.71,1.94,19,5.19a.47.47,0,0,1,.19.32l1.6,10.19a.5.5,0,0,1-.42.57Z"/><path class="cls-1" d="M29.72,26.51h-.08a.49.49,0,0,1-.41-.57l1.19-7.65a.53.53,0,0,1,.19-.32c3-2.27,8-3.62,13.29-3.62S54.19,15.7,57.2,18a.51.51,0,0,1,.19.32L58.7,25.9a.5.5,0,0,1-1,.17l-1.27-7.42c-2.86-2.08-7.52-3.31-12.54-3.31s-9.67,1.23-12.52,3.3l-1.17,7.44A.5.5,0,0,1,29.72,26.51Z"/><path class="cls-1" d="M44,23.9a.5.5,0,0,1-.5-.5V14.84a.5.5,0,0,1,.5-.5.5.5,0,0,1,.5.5V23.4A.5.5,0,0,1,44,23.9Z"/><path class="cls-1" d="M39.18,24.17h0a.49.49,0,0,1-.47-.52l.4-8.52a.48.48,0,0,1,.52-.47.49.49,0,0,1,.47.52l-.39,8.52A.51.51,0,0,1,39.18,24.17Z"/><path class="cls-1" d="M34.51,25h0a.5.5,0,0,1-.46-.54l.71-8.22a.51.51,0,0,1,.54-.46.5.5,0,0,1,.45.55L35,24.51A.5.5,0,0,1,34.51,25Z"/><path class="cls-1" d="M48.91,24.18a.5.5,0,0,1-.49-.48L48,15.21a.5.5,0,0,1,.47-.52.49.49,0,0,1,.53.48l.39,8.48a.5.5,0,0,1-.47.53Z"/><path class="cls-1" d="M53.58,25a.5.5,0,0,1-.5-.45l-.7-8.18a.5.5,0,1,1,1-.09l.7,8.18a.5.5,0,0,1-.46.54Z"/><path class="cls-1" d="M2.06,67.19a.45.45,0,0,1-.2,0,.51.51,0,0,1-.3-.46V57.38A.52.52,0,0,1,1.7,57L24.12,33.4a.5.5,0,0,1,.73.68L2.56,57.58v8l7.87-7.2a.5.5,0,0,1,.71,0,.51.51,0,0,1,0,.71l-8.71,8A.5.5,0,0,1,2.06,67.19Z"/><path class="cls-1" d="M85.94,67.19a.47.47,0,0,1-.34-.13l-8.71-8a.5.5,0,0,1,.67-.74l7.88,7.2v-8L63.15,34.08a.5.5,0,1,1,.72-.68L86.3,57a.52.52,0,0,1,.14.35v9.31a.5.5,0,0,1-.5.5Z"/></svg>