<svg id="图层_1" data-name="图层 1" xmlns="http://www.w3.org/2000/svg" viewBox="0 0 88 88"><defs><style>.cls-1{fill:#fff;}.cls-2{fill:#333;}.cls-3{fill:#80a9e0;}</style></defs><path class="cls-1" d="M53.58,63.12h.54A77.25,77.25,0,0,0,58,39.34c0-20.15-8.54-36.48-14-36.48-5.66,0-14,16.33-14,36.48A77.25,77.25,0,0,0,34,63.12h.53a2.51,2.51,0,0,0,.06,5h1.68l.34,12.39h1.71L40,85.14H47.8l2-4.62h1.67l.34-12.39h1.68a2.51,2.51,0,0,0,0-5Z"/><path class="cls-2" d="M54,63.62H33.88a.5.5,0,0,1-.47-.35,77.62,77.62,0,0,1-3.94-23.93c0-19.57,8.09-37,14.47-37,3,0,6.59,4.21,9.48,11a67.79,67.79,0,0,1,5,26,77.62,77.62,0,0,1-3.94,23.93A.5.5,0,0,1,54,63.62Zm-19.75-1H53.63a76.65,76.65,0,0,0,3.78-23.28c0-19.52-8.27-36-13.47-36s-13.47,16.12-13.47,36A76.71,76.71,0,0,0,34.25,62.62Z"/><path class="cls-3" d="M52.57,41a44.45,44.45,0,0,0,.31-5.24c0-12.73-5.39-23-8.82-23s-8.82,10.31-8.82,23A44.45,44.45,0,0,0,35.55,41"/><path class="cls-2" d="M57.9,41.45H30a.5.5,0,0,1-.5-.5.5.5,0,0,1,.5-.5H57.9a.51.51,0,0,1,.5.5A.5.5,0,0,1,57.9,41.45Z"/><path class="cls-2" d="M53.41,68.63H34.47a3,3,0,0,1,0-6H53.41a3,3,0,0,1,0,6Zm-18.94-5a2,2,0,0,0,0,4H53.41a2,2,0,1,0,0-4Z"/><path class="cls-2" d="M51.39,81H36.49a.5.5,0,0,1-.5-.49l-.34-12.38a.55.55,0,0,1,.14-.37.51.51,0,0,1,.36-.15H51.73a.51.51,0,0,1,.36.15.47.47,0,0,1,.14.37l-.34,12.38A.49.49,0,0,1,51.39,81ZM37,80H50.91l.31-11.39H36.66Z"/><path class="cls-2" d="M40,60.35a.5.5,0,0,1-.5-.5v-11a.5.5,0,0,1,.5-.5.5.5,0,0,1,.5.5v11A.5.5,0,0,1,40,60.35Z"/><path class="cls-2" d="M44,60.35a.5.5,0,0,1-.5-.5v-11a.5.5,0,1,1,1,0v11A.5.5,0,0,1,44,60.35Z"/><path class="cls-2" d="M47.84,60.35a.5.5,0,0,1-.5-.5v-11a.5.5,0,0,1,.5-.5.5.5,0,0,1,.5.5v11A.5.5,0,0,1,47.84,60.35Z"/><path class="cls-2" d="M53.41,72.8H34.71a.5.5,0,0,1-.5-.5.5.5,0,0,1,.5-.5h18.7a.5.5,0,0,1,.5.5A.51.51,0,0,1,53.41,72.8Z"/><path class="cls-2" d="M53.41,77H34.71a.5.5,0,0,1-.5-.5.5.5,0,0,1,.5-.5h18.7a.5.5,0,0,1,.5.5A.51.51,0,0,1,53.41,77Z"/><path class="cls-2" d="M47.68,85.64H39.9a.51.51,0,0,1-.47-.32l-1.7-4.63a.54.54,0,0,1,.06-.46A.52.52,0,0,1,38.2,80H49.72a.52.52,0,0,1,.42.23.49.49,0,0,1,0,.47l-2,4.63A.5.5,0,0,1,47.68,85.64Zm-7.43-1h7.1L49,81h-10Z"/></svg>