<svg id="图层_1" data-name="图层 1" xmlns="http://www.w3.org/2000/svg" viewBox="0 0 88 88"><defs><style>.cls-1{fill:#fff;}.cls-2{fill:#80a9e0;}.cls-3{fill:#333;}</style></defs><path class="cls-1" d="M63.52,33.74l-.83-5.25A20.32,20.32,0,0,0,58.2,26h0L56.9,18.37c-2.82-2.13-7.59-3.53-13-3.53s-10.16,1.39-13,3.52L29.72,26h0a20,20,0,0,0-4.41,2.46L23.71,38.68l.78-4.94L2.06,57.38v9.31l8.71-8h0C14.5,67,28,73.16,44,73.16S73.5,67,77.22,58.71v0l8.71,8V57.38Zm0,0"/><path class="cls-2" d="M64.76,47.24c-4.39-3.49-12.05-5.8-20.76-5.8s-16.37,2.31-20.76,5.8A7.43,7.43,0,0,0,21,52.32c0,6.48,10.31,11.73,23,11.73S67,58.8,67,52.32A7.42,7.42,0,0,0,64.76,47.24Z"/><path class="cls-3" d="M44,73.66c-19.17,0-34.76-8.79-34.76-19.59S24.83,34.47,44,34.47s34.75,8.79,34.75,19.6S63.16,73.66,44,73.66Zm0-38.19c-18.61,0-33.76,8.34-33.76,18.6S25.39,72.66,44,72.66s33.75-8.34,33.75-18.59S62.61,35.47,44,35.47Z"/><path class="cls-3" d="M44,67.19c-13.88,0-25.18-5.89-25.18-13.12S30.12,40.94,44,40.94s25.17,5.89,25.17,13.13S57.88,67.19,44,67.19Zm0-25.25c-13.33,0-24.18,5.44-24.18,12.13S30.67,66.19,44,66.19s24.17-5.44,24.17-12.12S57.33,41.94,44,41.94Z"/><path class="cls-3" d="M44,65C31,65,20.47,59.48,20.47,52.7c0-2.67,1.59-5.2,4.59-7.32a.5.5,0,1,1,.58.82c-2.73,1.92-4.17,4.17-4.17,6.5C21.47,58.93,31.58,64,44,64S66.52,58.93,66.52,52.7c0-2.31-1.42-4.55-4.11-6.46a.5.5,0,0,1,.58-.82c3,2.11,4.53,4.63,4.53,7.28C67.52,59.48,57,65,44,65Z"/><path class="cls-3" d="M64.29,39.18a.5.5,0,0,1-.49-.42l-1.57-10C58.09,25.72,51.3,23.9,44,23.9s-14.08,1.81-18.22,4.85l-1.58,10a.5.5,0,0,1-.57.41.51.51,0,0,1-.42-.57l1.62-10.21a.53.53,0,0,1,.19-.32c4.29-3.23,11.38-5.17,19-5.17s14.71,1.94,19,5.19a.51.51,0,0,1,.19.32l1.6,10.19a.51.51,0,0,1-.42.57Z"/><path class="cls-3" d="M29.73,26.51h-.08a.5.5,0,0,1-.42-.57l1.2-7.65a.53.53,0,0,1,.19-.32c3-2.27,8-3.62,13.28-3.62S54.2,15.7,57.2,18a.51.51,0,0,1,.19.32L58.7,25.9a.49.49,0,0,1-.41.57.5.5,0,0,1-.58-.4l-1.27-7.42c-2.85-2.08-7.52-3.31-12.54-3.31s-9.66,1.23-12.52,3.3l-1.16,7.44A.5.5,0,0,1,29.73,26.51Z"/><path class="cls-3" d="M44,23.9a.5.5,0,0,1-.5-.5V14.84a.5.5,0,0,1,.5-.5.5.5,0,0,1,.5.5V23.4A.5.5,0,0,1,44,23.9Z"/><path class="cls-3" d="M39.18,24.17h0a.5.5,0,0,1-.48-.52l.4-8.52a.47.47,0,0,1,.52-.47.5.5,0,0,1,.48.52l-.4,8.52A.5.5,0,0,1,39.18,24.17Z"/><path class="cls-3" d="M34.52,25h-.05a.5.5,0,0,1-.45-.54l.7-8.22a.5.5,0,1,1,1,.09L35,24.51A.5.5,0,0,1,34.52,25Z"/><path class="cls-3" d="M48.92,24.18a.5.5,0,0,1-.5-.48L48,15.21a.5.5,0,0,1,.48-.52.48.48,0,0,1,.52.48l.4,8.48a.51.51,0,0,1-.48.53Z"/><path class="cls-3" d="M53.58,25a.49.49,0,0,1-.49-.45l-.7-8.18a.5.5,0,1,1,1-.09l.7,8.18a.49.49,0,0,1-.45.54Z"/><path class="cls-3" d="M2.06,67.19a.48.48,0,0,1-.2,0,.51.51,0,0,1-.3-.46V57.38A.52.52,0,0,1,1.7,57L24.12,33.4a.5.5,0,0,1,.71,0,.49.49,0,0,1,0,.7L2.56,57.58v8l7.88-7.2a.49.49,0,0,1,.7,0,.5.5,0,0,1,0,.71l-8.71,8A.48.48,0,0,1,2.06,67.19Z"/><path class="cls-3" d="M85.94,67.19a.5.5,0,0,1-.34-.13l-8.71-8a.5.5,0,0,1,.68-.74l7.87,7.2v-8L63.15,34.08a.5.5,0,0,1,.73-.68L86.3,57a.52.52,0,0,1,.14.35v9.31a.51.51,0,0,1-.3.46A.45.45,0,0,1,85.94,67.19Z"/></svg>