<svg id="图层_1" data-name="图层 1" xmlns="http://www.w3.org/2000/svg" viewBox="0 0 88 88"><defs><style>.cls-1{fill:#97a6b7;}</style></defs><path class="cls-1" d="M44,77.5A33.5,33.5,0,1,1,77.5,44a33.18,33.18,0,0,1-2.78,13.38,13.46,13.46,0,0,1,2.22,7.75A11.58,11.58,0,0,1,70.4,75.54a13.69,13.69,0,0,1-13.34-.68A33.31,33.31,0,0,1,44,77.5Zm0-66A32.5,32.5,0,1,0,56.92,73.83a.49.49,0,0,1,.48,0A12.66,12.66,0,0,0,70,74.65a10.65,10.65,0,0,0,6-9.55,12.54,12.54,0,0,0-2.21-7.43.51.51,0,0,1,0-.4.36.36,0,0,1,0-.09A32.21,32.21,0,0,0,76.5,44,32.54,32.54,0,0,0,44,11.5Z"/><path class="cls-1" d="M64.2,76.83h-.35C58.16,76.68,52.07,72.93,52.17,65c0-3.69,1.71-6.38,4-10.1A81.67,81.67,0,0,0,64,39.38a.53.53,0,0,1,.94,0,71.15,71.15,0,0,0,7.78,15c2.46,3.77,4.23,6.49,4.08,10.69C76.52,72.84,70.31,76.83,64.2,76.83ZM64.49,41A83.68,83.68,0,0,1,57,55.46c-2.31,3.72-3.83,6.17-3.87,9.58-.09,7.22,5.49,10.65,10.71,10.78C69.61,76,75.54,72.3,75.82,65c.14-3.88-1.47-6.36-3.92-10.11A72.34,72.34,0,0,1,64.49,41Z"/><path class="cls-1" d="M28.92,56.84a.51.51,0,0,1-.39-.18,19.91,19.91,0,0,1-2.15-22.1,20.37,20.37,0,0,1,2.13-3.19,20,20,0,0,1,33.52,4,.5.5,0,0,1-.24.66.49.49,0,0,1-.66-.23A19,19,0,1,0,29.31,56a.5.5,0,0,1-.07.7A.5.5,0,0,1,28.92,56.84Z"/><path class="cls-1" d="M44,47.91A3.91,3.91,0,1,1,47.91,44,3.92,3.92,0,0,1,44,47.91Zm0-6.82A2.91,2.91,0,1,0,46.91,44,2.92,2.92,0,0,0,44,41.09Z"/><path class="cls-1" d="M45.92,41.17a.54.54,0,0,1-.25-.06.49.49,0,0,1-.19-.68l10.41-18.7a.5.5,0,0,1,.68-.2.51.51,0,0,1,.19.68L46.35,40.92A.5.5,0,0,1,45.92,41.17Z"/><path class="cls-1" d="M39.88,52a.53.53,0,0,1-.24-.06.5.5,0,0,1-.19-.68l2.3-4.14a.5.5,0,0,1,.87.49l-2.3,4.13A.49.49,0,0,1,39.88,52Z"/><path class="cls-1" d="M44,24.87a.5.5,0,0,1-.5-.5V19.3a.5.5,0,1,1,1,0v5.07A.5.5,0,0,1,44,24.87Z"/><path class="cls-1" d="M61.06,34.65a.5.5,0,0,1-.25-.93l4.33-2.5a.5.5,0,1,1,.5.86l-4.33,2.5A.47.47,0,0,1,61.06,34.65Z"/><path class="cls-1" d="M34.11,27.36a.51.51,0,0,1-.44-.25l-2.45-4.25a.5.5,0,0,1,.86-.5l2.46,4.25a.51.51,0,0,1-.18.69A.57.57,0,0,1,34.11,27.36Z"/><path class="cls-1" d="M26.9,34.63a.55.55,0,0,1-.25-.07l-4.29-2.48a.5.5,0,1,1,.5-.86l4.29,2.47a.51.51,0,0,1,.18.69A.5.5,0,0,1,26.9,34.63Z"/><path class="cls-1" d="M24.24,44.5H19.3a.5.5,0,1,1,0-1h4.94a.5.5,0,0,1,0,1Z"/><path class="cls-1" d="M22.61,56.85a.5.5,0,0,1-.25-.93l4.31-2.49a.5.5,0,1,1,.5.86l-4.31,2.49A.45.45,0,0,1,22.61,56.85Z"/><path class="cls-1" d="M64.5,71a7.8,7.8,0,0,1-2.29-.34.5.5,0,0,1-.34-.62.5.5,0,0,1,.63-.34,6.69,6.69,0,0,0,5.84-.92,5.25,5.25,0,0,0,2.1-4.45.5.5,0,0,1,.5-.5h0a.5.5,0,0,1,.5.5,6.19,6.19,0,0,1-2.5,5.25A7.44,7.44,0,0,1,64.5,71Z"/><path class="cls-1" d="M44,77.38A33.36,33.36,0,1,1,74.51,57.56a.51.51,0,0,1-.67.26.5.5,0,0,1-.25-.66A32.35,32.35,0,1,0,56.87,73.72a.5.5,0,0,1,.66.26.52.52,0,0,1-.26.66A33.16,33.16,0,0,1,44,77.38Z"/><path class="cls-1" d="M44,73.77a29.73,29.73,0,1,1,28.13-20,.5.5,0,0,1-.95-.33,28.71,28.71,0,1,0-17,17.47.5.5,0,0,1,.35.93A29.5,29.5,0,0,1,44,73.77Z"/><path class="cls-1" d="M52.67,63.76H22.61a.51.51,0,0,1-.5-.5.5.5,0,0,1,.5-.5H52.67a.5.5,0,0,1,.5.5A.51.51,0,0,1,52.67,63.76Z"/></svg>