<svg id="图层_1" data-name="图层 1" xmlns="http://www.w3.org/2000/svg" viewBox="0 0 88 88"><defs><style>.cls-1{fill:#97a6b7;}</style></defs><path class="cls-1" d="M15.51,10.58h57a4.93,4.93,0,0,1,4.93,4.93v57a4.93,4.93,0,0,1-4.93,4.93h-57a4.93,4.93,0,0,1-4.93-4.93v-57A4.93,4.93,0,0,1,15.51,10.58Zm57,65.84a3.93,3.93,0,0,0,3.93-3.93v-57a3.93,3.93,0,0,0-3.93-3.93h-57a3.93,3.93,0,0,0-3.93,3.93v57a3.93,3.93,0,0,0,3.93,3.93Z"/><path class="cls-1" d="M44.06,16.93A27.07,27.07,0,1,1,17,44,27.1,27.1,0,0,1,44.06,16.93Zm0,53.14A26.07,26.07,0,1,0,18,44,26.1,26.1,0,0,0,44.06,70.07Z"/><path class="cls-1" d="M44,16.93A27.07,27.07,0,1,1,16.93,44,27.1,27.1,0,0,1,44,16.93Zm0,53.14A26.07,26.07,0,1,0,17.93,44,26.11,26.11,0,0,0,44,70.07Z"/><path class="cls-1" d="M34.18,32.06h3.26a.5.5,0,0,1,.5.5V42.4a.51.51,0,0,1-.5.5H34.18a.5.5,0,0,1-.5-.5V32.56A.5.5,0,0,1,34.18,32.06Zm2.76,1H34.68V41.9h2.26Z"/><path class="cls-1" d="M50.68,32.06h3.26a.5.5,0,0,1,.5.5v7.31a.5.5,0,0,1-.5.5H50.68a.5.5,0,0,1-.5-.5V32.56A.5.5,0,0,1,50.68,32.06Zm2.76,1H51.18v6.31h2.26Z"/><path class="cls-1" d="M44.28,47.25h.54a3.86,3.86,0,0,1,3.86,3.86v4.33a.5.5,0,0,1-.5.5H40.93a.5.5,0,0,1-.5-.5V51.11A3.86,3.86,0,0,1,44.28,47.25Zm3.4,7.69V51.11a2.86,2.86,0,0,0-2.86-2.86h-.54a2.86,2.86,0,0,0-2.85,2.86v3.83Z"/></svg>