<svg id="图层_1" data-name="图层 1" xmlns="http://www.w3.org/2000/svg" viewBox="0 0 88 88"><defs><style>.cls-1{fill:#fff;}.cls-2{fill:#333;}.cls-3{fill:#80a9e0;}</style></defs><rect class="cls-1" x="11.08" y="11.08" width="65.85" height="65.85" rx="4.43" transform="translate(88 88) rotate(180)"/><path class="cls-2" d="M72.49,77.42h-57a4.93,4.93,0,0,1-4.93-4.93v-57a4.93,4.93,0,0,1,4.93-4.93h57a4.93,4.93,0,0,1,4.93,4.93v57A4.93,4.93,0,0,1,72.49,77.42Zm-57-65.84a3.93,3.93,0,0,0-3.93,3.93v57a3.93,3.93,0,0,0,3.93,3.93h57a3.93,3.93,0,0,0,3.93-3.93v-57a3.93,3.93,0,0,0-3.93-3.93Z"/><circle class="cls-3" cx="44.06" cy="44" r="26.57"/><path class="cls-2" d="M44,71.07A27.07,27.07,0,1,1,71.07,44,27.1,27.1,0,0,1,44,71.07Zm0-53.14A26.07,26.07,0,1,0,70.07,44,26.09,26.09,0,0,0,44,17.93Z"/><rect class="cls-1" x="34.18" y="32.56" width="3.26" height="9.84" transform="translate(71.62 74.95) rotate(180)"/><path class="cls-2" d="M37.44,42.94H34.18a.54.54,0,0,1-.54-.54V32.56a.54.54,0,0,1,.54-.54h3.26a.54.54,0,0,1,.54.54V42.4A.54.54,0,0,1,37.44,42.94Zm-2.72-1.08H36.9V33.1H34.72Z"/><rect class="cls-1" x="50.68" y="32.56" width="3.26" height="7.32" transform="translate(104.63 72.43) rotate(180)"/><path class="cls-2" d="M53.94,40.34H50.68a.47.47,0,0,1-.46-.47V32.56a.47.47,0,0,1,.46-.47h3.26a.47.47,0,0,1,.47.47v7.31A.47.47,0,0,1,53.94,40.34Zm-2.79-.93h2.33V33H51.15Z"/><path class="cls-1" d="M40.93,47.75h7.26a0,0,0,0,1,0,0v4.33a3.36,3.36,0,0,1-3.36,3.36h-.54a3.36,3.36,0,0,1-3.36-3.36V47.75a0,0,0,0,1,0,0Z" transform="translate(89.11 103.2) rotate(-180)"/><path class="cls-2" d="M48.18,55.94H40.93a.5.5,0,0,1-.5-.5V51.11a3.86,3.86,0,0,1,3.85-3.86h.54a3.86,3.86,0,0,1,3.86,3.86v4.33A.5.5,0,0,1,48.18,55.94Zm-6.75-1h6.25V51.11a2.86,2.86,0,0,0-2.86-2.86h-.54a2.86,2.86,0,0,0-2.85,2.86Z"/></svg>