<svg id="图层_1" data-name="图层 1" xmlns="http://www.w3.org/2000/svg" viewBox="0 0 88 88"><defs><style>.cls-1{fill:#fff;}.cls-2{fill:#333;}.cls-3{fill:#80a9e0;}</style></defs><rect class="cls-1" x="11.08" y="11.08" width="65.85" height="65.85" rx="4.79"/><path class="cls-2" d="M72.13,77.42H15.86a5.29,5.29,0,0,1-5.28-5.28V15.86a5.29,5.29,0,0,1,5.28-5.28H72.13a5.29,5.29,0,0,1,5.29,5.28V72.14A5.29,5.29,0,0,1,72.13,77.42ZM15.86,11.58a4.28,4.28,0,0,0-4.28,4.28V72.14a4.28,4.28,0,0,0,4.28,4.28H72.13a4.29,4.29,0,0,0,4.29-4.28V15.86a4.29,4.29,0,0,0-4.29-4.28Z"/><path class="cls-3" d="M71,72.48H17.06A1.54,1.54,0,0,1,15.53,71V17.05a1.54,1.54,0,0,1,1.53-1.53H71a1.54,1.54,0,0,1,1.53,1.53V71A1.54,1.54,0,0,1,71,72.48Z"/><path class="cls-2" d="M71,73H17.05a2,2,0,0,1-2-2V17.05a2,2,0,0,1,2-2H71a2,2,0,0,1,2,2V71A2,2,0,0,1,71,73ZM17.05,16a1,1,0,0,0-1,1V71a1,1,0,0,0,1,1H71a1,1,0,0,0,1-1V17.05a1,1,0,0,0-1-1Z"/><rect class="cls-1" x="36.43" y="18.68" width="15.13" height="1.81" rx="0.91"/><path class="cls-2" d="M50.66,21H37.34a1.41,1.41,0,1,1,0-2.81H50.66a1.41,1.41,0,1,1,0,2.81ZM37.34,19.18a.41.41,0,1,0,0,.81H50.66a.41.41,0,1,0,0-.81Z"/></svg>