<svg id="图层_1" data-name="图层 1" xmlns="http://www.w3.org/2000/svg" viewBox="0 0 88 88"><defs><style>.cls-1{fill:#97a6b7;}</style></defs><path class="cls-1" d="M72.14,77.42H15.86a5.29,5.29,0,0,1-5.28-5.28V15.86a5.29,5.29,0,0,1,5.28-5.28H72.14a5.29,5.29,0,0,1,5.28,5.28V72.14A5.29,5.29,0,0,1,72.14,77.42ZM15.86,11.58a4.28,4.28,0,0,0-4.28,4.28V72.14a4.28,4.28,0,0,0,4.28,4.28H72.14a4.28,4.28,0,0,0,4.28-4.28V15.86a4.28,4.28,0,0,0-4.28-4.28Z"/><path class="cls-1" d="M71,73H17.05a2,2,0,0,1-2-2V17.05a2,2,0,0,1,2-2H71a2,2,0,0,1,2,2V71A2,2,0,0,1,71,73ZM17.05,16a1,1,0,0,0-1,1V71a1,1,0,0,0,1,1H71a1,1,0,0,0,1-1V17.05a1,1,0,0,0-1-1Z"/><path class="cls-1" d="M50.66,21H37.34a1.41,1.41,0,1,1,0-2.81H50.66a1.41,1.41,0,1,1,0,2.81ZM37.34,19.18a.41.41,0,1,0,0,.81H50.66a.41.41,0,1,0,0-.81Z"/></svg>